<svg xmlns="http://www.w3.org/2000/svg" viewBox="0 0 32 32" fill="none">
  <!-- Background -->
  <rect width="32" height="32" rx="8" fill="#059669"/>
  
  <!-- Bike wheels with spokes -->
  <circle cx="8" cy="24" r="6" fill="none" stroke="white" stroke-width="2"/>
  <circle cx="24" cy="24" r="6" fill="none" stroke="white" stroke-width="2"/>
  
  <!-- Wheel spokes -->
  <line x1="8" y1="18" x2="8" y2="30" stroke="white" stroke-width="1"/>
  <line x1="2" y1="24" x2="14" y2="24" stroke="white" stroke-width="1"/>
  <line x1="24" y1="18" x2="24" y2="30" stroke="white" stroke-width="1"/>
  <line x1="18" y1="24" x2="30" y2="24" stroke="white" stroke-width="1"/>
  
  <!-- Bike frame - aerodynamic design -->
  <path d="M8 24L20 24L24 20L20 16L16 16L8 24" stroke="white" stroke-width="2.5" fill="none" stroke-linecap="round" stroke-linejoin="round"/>
  
  <!-- Handlebar -->
  <path d="M16 16L14 12L18 12L16 16" stroke="white" stroke-width="2.5" stroke-linecap="round" stroke-linejoin="round"/>
  
  <!-- Seat -->
  <path d="M20 16L18 20L22 20L20 16" stroke="white" stroke-width="2.5" stroke-linecap="round" stroke-linejoin="round"/>
  
  <!-- Speed lines -->
  <path d="M26 8L28 10L26 12" stroke="white" stroke-width="1" opacity="0.7"/>
  <path d="M26 6L28 8L26 10" stroke="white" stroke-width="1" opacity="0.5"/>
</svg>
