<svg xmlns="http://www.w3.org/2000/svg" viewBox="0 0 32 32" fill="none">
  <rect width="32" height="32" rx="6" fill="#3B82F6"/>
  <path d="M8 20C8 17.7909 9.79086 16 12 16C14.2091 16 16 17.7909 16 20C16 22.2091 14.2091 24 12 24C9.79086 24 8 22.2091 8 20Z" fill="white"/>
  <path d="M16 20C16 17.7909 17.7909 16 20 16C22.2091 16 24 17.7909 24 20C24 22.2091 22.2091 24 20 24C17.7909 24 16 22.2091 16 20Z" fill="white"/>
  <path d="M12 20C12 18.8954 12.8954 18 14 18H18C19.1046 18 20 18.8954 20 20" stroke="white" stroke-width="2" stroke-linecap="round"/>
  <path d="M14 18L16 14L18 18" stroke="white" stroke-width="2" stroke-linecap="round" stroke-linejoin="round"/>
  <path d="M16 14V12" stroke="white" stroke-width="2" stroke-linecap="round"/>
</svg>
